<svg width="289" height="96" fill="none" xmlns="http://www.w3.org/2000/svg"><path d="M70.984 2.592h9.312v60.48h35.232V72H70.984V2.592Zm54.055 49.152c0-3.968.928-7.552 2.784-10.752 1.92-3.2 4.544-5.728 7.872-7.584 3.328-1.856 7.104-2.784 11.328-2.784 4.352 0 8.16.928 11.424 2.784 3.264 1.856 5.792 4.384 7.584 7.584 1.792 3.2 2.688 6.784 2.688 10.752 0 3.968-.896 7.584-2.688 10.848-1.792 3.2-4.352 5.728-7.68 7.584-3.264 1.856-7.072 2.784-11.424 2.784-4.224 0-8-.864-11.328-2.592-3.264-1.792-5.856-4.256-7.776-7.392-1.856-3.2-2.784-6.944-2.784-11.232Zm8.928.096c0 2.56.576 4.896 1.728 7.008 1.152 2.048 2.688 3.68 4.608 4.896 1.984 1.216 4.16 1.824 6.528 1.824 2.496 0 4.704-.608 6.624-1.824a12.553 12.553 0 0 0 4.608-4.896c1.088-2.112 1.632-4.448 1.632-7.008 0-2.56-.544-4.864-1.632-6.912-1.088-2.112-2.624-3.776-4.608-4.992-1.92-1.28-4.128-1.92-6.624-1.92-2.432 0-4.64.64-6.624 1.92-1.92 1.28-3.456 2.976-4.608 5.088-1.088 2.048-1.632 4.32-1.632 6.816Zm65.944 39.84c-2.944 0-5.536-.352-7.776-1.056-2.24-.64-4.288-1.568-6.144-2.784a44.405 44.405 0 0 1-5.184-4.128l5.184-6.048c2.112 1.984 4.256 3.52 6.432 4.608 2.176 1.088 4.608 1.632 7.296 1.632 3.008 0 5.536-.512 7.584-1.536 2.112-.96 3.712-2.336 4.8-4.128 1.088-1.728 1.632-3.744 1.632-6.048l.096-10.752.768 1.728c-1.152 2.752-3.232 5.088-6.24 7.008-3.008 1.856-6.656 2.784-10.944 2.784-3.648 0-7.008-.928-10.08-2.784-3.008-1.856-5.44-4.352-7.296-7.488-1.792-3.2-2.688-6.784-2.688-10.752 0-4.16.96-7.808 2.88-10.944 1.92-3.2 4.448-5.728 7.584-7.584 3.136-1.856 6.56-2.784 10.272-2.784 3.52 0 6.72.736 9.6 2.208 2.944 1.408 5.088 3.232 6.432 5.472l-.48 1.632.96-7.68h8.16v40.032c0 3.584-.928 6.848-2.784 9.792-1.856 2.944-4.48 5.28-7.872 7.008-3.392 1.728-7.456 2.592-12.192 2.592Zm-13.632-39.936c0 2.56.608 4.896 1.824 7.008 1.216 2.112 2.848 3.776 4.896 4.992 2.112 1.216 4.448 1.824 7.008 1.824 2.368 0 4.48-.416 6.336-1.248 1.92-.896 3.52-2.08 4.8-3.552a13.348 13.348 0 0 0 2.688-5.28v-7.872c-.576-1.92-1.536-3.584-2.88-4.992a13.31 13.31 0 0 0-4.8-3.36c-1.856-.832-3.904-1.248-6.144-1.248-2.56 0-4.896.576-7.008 1.728-2.048 1.152-3.68 2.784-4.896 4.896-1.216 2.048-1.824 4.416-1.824 7.104Zm48.447 0c0-3.968.928-7.552 2.784-10.752 1.92-3.2 4.544-5.728 7.872-7.584 3.328-1.856 7.104-2.784 11.328-2.784 4.352 0 8.16.928 11.424 2.784 3.264 1.856 5.792 4.384 7.584 7.584 1.792 3.2 2.688 6.784 2.688 10.752 0 3.968-.896 7.584-2.688 10.848-1.792 3.2-4.352 5.728-7.68 7.584-3.264 1.856-7.072 2.784-11.424 2.784-4.224 0-8-.864-11.328-2.592-3.264-1.792-5.856-4.256-7.776-7.392-1.856-3.2-2.784-6.944-2.784-11.232Zm8.928.096c0 2.56.576 4.896 1.728 7.008 1.152 2.048 2.688 3.68 4.608 4.896 1.984 1.216 4.16 1.824 6.528 1.824 2.496 0 4.704-.608 6.624-1.824a12.553 12.553 0 0 0 4.608-4.896c1.088-2.112 1.632-4.448 1.632-7.008 0-2.56-.544-4.864-1.632-6.912-1.088-2.112-2.624-3.776-4.608-4.992-1.92-1.28-4.128-1.92-6.624-1.92-2.432 0-4.64.64-6.624 1.92-1.92 1.28-3.456 2.976-4.608 5.088-1.088 2.048-1.632 4.32-1.632 6.816Z" fill="#2CA9A4"/><g filter="url(#a)"><path fill-rule="evenodd" clip-rule="evenodd" d="M192.135 90.624c2.24.704 4.832 1.056 7.776 1.056 4.736 0 8.8-.864 12.192-2.592 3.392-1.728 6.016-4.064 7.872-7.008a17.813 17.813 0 0 0 2.712-8.08h-9.071c-.215 1.567-.719 2.98-1.513 4.24-1.088 1.792-2.688 3.168-4.8 4.128-2.048 1.024-4.576 1.536-7.584 1.536-2.688 0-5.12-.544-7.296-1.632-2.176-1.088-4.32-2.624-6.432-4.608l-5.184 6.048a44.405 44.405 0 0 0 5.184 4.128c1.856 1.216 3.904 2.144 6.144 2.784Z" fill="#2CA9A4"/></g><path fill="#6ED7D3" fill-opacity=".28" d="M0 42h289v32H0z"/><defs><filter id="a" x="180.807" y="74" width="41.879" height="21.68" filterUnits="userSpaceOnUse" color-interpolation-filters="sRGB"><feFlood flood-opacity="0" result="BackgroundImageFix"/><feBlend in="SourceGraphic" in2="BackgroundImageFix" result="shape"/><feColorMatrix in="SourceAlpha" values="0 0 0 0 0 0 0 0 0 0 0 0 0 0 0 0 0 0 127 0" result="hardAlpha"/><feOffset dy="4"/><feGaussianBlur stdDeviation="2"/><feComposite in2="hardAlpha" operator="arithmetic" k2="-1" k3="1"/><feColorMatrix values="0 0 0 0 0.408333 0 0 0 0 0.408333 0 0 0 0 0.408333 0 0 0 0.25 0"/><feBlend in2="shape" result="effect1_innerShadow_3_38"/></filter></defs></svg>